<?xml version="1.0" standalone="no"?>
<!DOCTYPE svg PUBLIC "-//W3C//DTD SVG 20010904//EN"
 "http://www.w3.org/TR/2001/REC-SVG-20010904/DTD/svg10.dtd">
<svg version="1.0" xmlns="http://www.w3.org/2000/svg"
 width="280.000000pt" height="280.000000pt" viewBox="0 0 280.000000 280.000000"
 preserveAspectRatio="xMidYMid meet">
<metadata>
Created by potrace 1.11, written by Peter Selinger 2001-2013
</metadata>
<g transform="translate(0.000000,280.000000) scale(0.100000,-0.100000)"
fill="#000000" stroke="none">
<path d="M1210 2722 c0 -5 -18 -8 -40 -7 -22 1 -40 -3 -40 -8 0 -4 -8 -7 -17
-6 -10 1 -25 -1 -33 -4 -8 -4 -26 -9 -40 -11 -14 -3 -26 -5 -27 -7 -2 -1 -6
-2 -10 -3 -22 -5 -88 -30 -111 -42 -15 -8 -33 -14 -39 -14 -7 0 -13 -5 -13
-12 0 -6 -3 -8 -7 -5 -3 4 -17 0 -30 -8 -13 -9 -23 -12 -23 -8 0 5 -4 3 -8 -3
-4 -6 -29 -24 -57 -40 -27 -15 -55 -33 -62 -39 -37 -31 -43 -35 -43 -30 0 3
-10 -3 -22 -15 -12 -11 -26 -20 -30 -20 -5 0 -6 -4 -3 -10 3 -5 -1 -10 -9 -10
-8 0 -20 -9 -26 -20 -6 -11 -17 -20 -25 -20 -7 0 -17 -5 -21 -12 -5 -7 -3 -8
6 -3 9 5 11 4 6 -3 -4 -7 -14 -12 -22 -12 -8 0 -14 -3 -14 -7 0 -5 -21 -30
-46 -58 -53 -57 -110 -137 -106 -147 1 -5 -2 -8 -7 -8 -5 0 -13 -9 -16 -20 -4
-11 -11 -17 -17 -14 -6 4 -8 2 -5 -3 4 -6 -4 -27 -18 -47 -13 -20 -22 -36 -18
-36 3 0 -2 -10 -13 -22 -13 -14 -14 -19 -4 -14 11 6 11 4 -1 -6 -9 -7 -17 -17
-19 -23 -6 -23 -9 -33 -30 -90 -12 -33 -24 -67 -26 -75 -41 -164 -58 -277 -42
-286 5 -3 5 -11 -1 -18 -11 -13 -10 -34 2 -53 4 -6 3 -14 -2 -17 -5 -4 -9 -20
-9 -36 1 -17 5 -27 11 -23 6 4 7 1 2 -8 -13 -20 -13 -49 -1 -49 6 0 5 -4 -3
-9 -7 -5 -9 -11 -4 -14 5 -3 8 -26 8 -51 -1 -25 3 -43 7 -39 5 3 8 -1 7 -8 -2
-8 1 -34 6 -59 5 -25 8 -48 7 -52 -1 -5 3 -8 9 -8 6 0 9 -7 6 -15 -4 -8 -2
-17 2 -19 8 -6 25 -64 22 -78 0 -5 3 -8 9 -8 6 0 9 -3 8 -7 -3 -13 25 -83 34
-83 4 0 8 -7 8 -15 0 -25 93 -176 159 -258 27 -34 169 -177 175 -177 4 0 19
-12 35 -26 16 -14 33 -26 38 -27 4 0 16 -10 25 -21 10 -12 17 -17 18 -13 0 5
7 2 15 -5 35 -31 45 -38 59 -38 8 0 16 -4 18 -8 5 -11 108 -64 108 -55 0 5 4
3 8 -3 7 -12 152 -64 183 -67 11 -1 19 -5 19 -9 0 -3 8 -6 18 -6 9 0 31 -2 47
-6 17 -4 48 -10 70 -13 46 -7 348 -7 385 0 14 2 48 8 75 12 28 4 55 11 60 15
6 4 20 6 33 5 12 -1 22 2 22 6 0 7 59 24 73 21 4 -1 7 2 7 7 0 8 56 25 73 22
4 0 7 4 7 10 0 5 4 8 9 5 5 -4 11 -3 13 2 1 4 32 23 68 41 36 18 73 40 83 49
9 8 17 12 17 9 0 -4 10 2 23 13 12 10 26 21 32 22 5 2 21 15 36 31 14 15 29
27 33 27 17 0 202 201 230 249 5 9 16 22 23 29 7 7 13 20 13 28 0 8 4 14 8 14
7 0 92 158 97 180 1 3 7 19 14 35 7 17 15 42 18 58 3 15 9 30 14 33 4 2 6 11
2 19 -3 8 0 15 6 15 7 0 9 10 7 25 -3 14 0 25 5 25 5 0 9 16 9 36 0 19 3 33 8
31 4 -3 7 11 6 31 0 21 4 45 9 56 7 13 6 16 -3 11 -9 -6 -9 -3 -1 12 7 14 7
23 -1 31 -8 8 -9 12 -1 12 13 0 12 59 -1 79 -6 9 -5 12 1 8 7 -4 10 12 10 43
0 27 -4 47 -8 44 -5 -3 -5 6 0 19 5 13 6 29 1 36 -4 7 -6 26 -5 42 1 16 -2 32
-7 35 -6 4 -5 10 3 15 9 6 10 9 2 9 -7 0 -14 24 -18 55 -4 30 -11 55 -15 55
-5 0 -7 11 -5 25 1 14 -2 25 -6 25 -5 0 -9 7 -9 16 0 8 -10 36 -22 62 -12 26
-21 52 -20 58 1 6 -5 17 -13 24 -8 7 -15 18 -15 26 0 7 -7 20 -16 28 -8 9 -13
16 -9 16 3 0 -2 11 -11 25 -9 14 -13 25 -10 25 4 0 -3 10 -16 23 -13 12 -24
29 -26 37 -2 8 -10 19 -18 23 -8 4 -14 13 -14 19 0 6 -13 24 -30 39 -16 16
-27 29 -23 29 4 0 -16 22 -44 50 -28 27 -48 52 -45 55 3 3 1 5 -5 5 -5 0 -28
17 -51 38 -55 50 -56 51 -143 110 -42 28 -79 48 -83 45 -3 -4 -6 -1 -6 5 0 7
-6 12 -14 12 -8 0 -22 7 -30 16 -9 8 -16 13 -16 10 0 -4 -17 2 -39 13 -21 11
-41 17 -45 14 -3 -4 -6 -1 -6 5 0 6 -16 14 -35 18 -19 3 -35 10 -35 14 0 4
-11 6 -25 5 -14 -2 -23 0 -20 5 2 4 -12 10 -33 14 -20 3 -50 9 -67 12 -16 3
-34 7 -40 8 -5 1 -16 5 -22 9 -8 5 -13 3 -13 -5 0 -10 -2 -10 -8 -1 -9 13
-382 18 -382 5z m114 -644 c12 11 140 9 148 -3 5 -6 8 -6 8 3 0 9 5 9 18 3 9
-6 38 -13 65 -16 26 -3 47 -10 47 -15 0 -5 9 -7 20 -5 11 2 20 0 20 -4 0 -7
20 -17 50 -25 12 -3 116 -72 134 -88 11 -10 24 -18 28 -18 5 0 6 -4 3 -10 -3
-5 1 -10 9 -10 9 0 16 -4 16 -9 0 -5 14 -23 31 -40 17 -18 27 -36 23 -42 -4
-7 -3 -9 3 -6 11 7 83 -117 83 -143 0 -10 4 -20 9 -22 6 -1 12 -14 14 -28 9
-44 17 -94 21 -128 3 -19 7 -36 10 -40 3 -3 1 -11 -5 -19 -9 -10 -8 -13 2 -13
9 0 10 -3 4 -8 -16 -11 -17 -33 -3 -50 10 -12 10 -14 1 -8 -9 5 -13 -1 -14
-21 0 -15 -3 -37 -5 -48 -2 -11 -5 -28 -6 -37 -1 -10 -6 -18 -11 -18 -5 0 -7
-5 -5 -12 3 -7 -11 -42 -29 -78 -45 -90 -73 -137 -73 -125 -1 6 -7 -1 -15 -15
-8 -14 -14 -22 -15 -19 0 4 -21 -15 -47 -42 -27 -27 -52 -49 -56 -49 -4 0 -18
-9 -29 -20 -24 -22 -109 -66 -120 -62 -5 1 -8 -2 -8 -7 0 -5 -15 -12 -32 -16
-37 -9 -47 -12 -50 -14 -12 -10 -72 -15 -173 -15 -139 0 -211 18 -331 85 -79
43 -200 156 -228 212 -8 17 -16 28 -16 22 -1 -5 -8 6 -17 25 -19 40 -17 36
-27 72 -5 16 -11 26 -15 24 -4 -3 -7 3 -8 12 -1 9 -8 44 -15 77 -8 33 -13 70
-12 83 1 12 -3 22 -9 22 -5 0 -4 6 2 14 8 10 9 16 1 21 -6 3 -7 12 -3 18 4 7
9 37 11 67 2 30 6 59 11 65 4 5 6 20 5 32 0 12 3 20 7 17 5 -3 9 6 9 19 0 25
56 140 71 145 5 2 9 10 9 18 0 8 22 37 48 64 27 27 47 52 44 55 -3 3 0 5 6 5
6 0 25 13 43 30 18 16 52 39 75 50 23 10 45 24 49 30 3 5 14 10 23 10 9 0 30
7 45 15 15 8 47 17 70 20 23 4 44 11 45 16 3 6 9 6 16 0 7 -6 16 -7 20 -3z"/>
</g>
</svg>
